<?xml version="1.0" encoding="UTF-8" standalone="no"?>
<!DOCTYPE svg PUBLIC "-//W3C//DTD SVG 1.1//EN"
 "http://www.w3.org/Graphics/SVG/1.1/DTD/svg11.dtd">
<!-- Generated by graphviz version 2.43.0 (0)
 -->
<!-- Title: noisetool Pages: 1 -->
<svg width="179pt" height="71pt"
 viewBox="0.00 0.00 179.00 71.00" xmlns="http://www.w3.org/2000/svg" xmlns:xlink="http://www.w3.org/1999/xlink">
<g id="graph0" class="graph" transform="scale(1 1) rotate(0) translate(4 67)">
<title>noisetool</title>
<polygon fill="white" stroke="transparent" points="-4,4 -4,-67 175,-67 175,4 -4,4"/>
<!-- noise -->
<g id="node1" class="node">
<title>noise</title>
<polygon fill="none" stroke="black" points="8,-27.5 8,-48.5 50,-48.5 50,-27.5 8,-27.5"/>
<text text-anchor="start" x="14.5" y="-34.3" font-family="Times,serif" font-size="14.00">noise</text>
<polygon fill="none" stroke="black" points="8,-14.5 8,-27.5 50,-27.5 50,-14.5 8,-14.5"/>
<text text-anchor="start" x="11" y="-19.7" font-family="Times,serif" font-size="6.00">module::Perlin</text>
</g>
<!-- output -->
<g id="node2" class="node">
<title>output</title>
<polygon fill="none" stroke="black" points="102.5,-37.5 102.5,-58.5 163.5,-58.5 163.5,-37.5 102.5,-37.5"/>
<text text-anchor="start" x="115.5" y="-44.3" font-family="Times,serif" font-size="14.00">output</text>
<polygon fill="none" stroke="black" points="102.5,-3.5 102.5,-37.5 163.5,-37.5 163.5,-3.5 102.5,-3.5"/>
<text text-anchor="start" x="116" y="-29.7" font-family="Times,serif" font-size="6.00">builder: brick</text>
<text text-anchor="start" x="105.5" y="-22.7" font-family="Times,serif" font-size="6.00">bounds: 0.0,0.0,5.0,5.0</text>
<text text-anchor="start" x="114.5" y="-15.7" font-family="Times,serif" font-size="6.00">destsize: 40,80</text>
<text text-anchor="start" x="112" y="-8.7" font-family="Times,serif" font-size="6.00">destfile: noise.txt</text>
</g>
<!-- noise&#45;&gt;output -->
<g id="edge1" class="edge">
<title>noise&#45;&gt;output</title>
<path fill="none" stroke="black" d="M58,-31.5C65.93,-31.5 74.8,-31.5 83.55,-31.5"/>
<polygon fill="black" stroke="black" points="83.71,-35 93.71,-31.5 83.71,-28 83.71,-35"/>
</g>
</g>
</svg>
